<svg width="3355" height="991" viewBox="0 0 3355 991" fill="none" xmlns="http://www.w3.org/2000/svg">
<line x1="2595.34" y1="413.053" x2="2595.34" y2="677.192" stroke="white" stroke-width="54.4616"/>
<path d="M2426.67 479.628C2426.67 479.628 2426.67 424.173 2426.67 388.641C2426.67 290.927 2595.34 290.043 2595.34 388.641C2595.34 424.173 2595.34 479.628 2595.34 479.628" stroke="white" stroke-width="54.4616"/>
<path d="M2595.34 479.628C2595.34 479.628 2595.34 424.173 2595.34 388.641C2595.34 290.927 2764 290.043 2764 388.641C2764 424.173 2764 479.628 2764 479.628" stroke="white" stroke-width="54.4616"/>
<line x1="1718.47" y1="412.564" x2="1718.47" y2="479.625" stroke="white" stroke-width="54.4616"/>
<path d="M1550 677.254C1550 677.254 1550 424.173 1550 388.641C1550 290.927 1718.67 290.043 1718.67 388.641C1718.67 424.173 1718.67 479.628 1718.67 479.628" stroke="white" stroke-width="54.4616"/>
<path d="M1887.33 677.254C1887.33 677.254 1887.33 424.173 1887.33 388.641C1887.33 290.927 1718.67 290.043 1718.67 388.641C1718.67 424.173 1718.67 479.628 1718.67 479.628" stroke="white" stroke-width="54.4616"/>
<path d="M2906.35 712.207C2878.76 712.207 2856.35 704.965 2839.1 690.481C2821.86 675.653 2813.24 656.513 2813.24 633.063C2813.24 610.302 2820.65 591.335 2835.48 576.162C2850.66 560.643 2873.59 550.297 2904.28 545.125L2999.46 529.606V516.674C2999.46 501.5 2993.77 489.258 2982.39 479.947C2971.01 470.291 2956.35 465.463 2938.42 465.463C2922.56 465.463 2908.42 469.601 2896 477.878C2883.93 485.809 2874.97 496.5 2869.11 509.949L2827.21 488.223C2835.14 468.911 2849.62 452.876 2870.66 440.116C2891.69 427.356 2914.63 420.976 2939.46 420.976C2960.49 420.976 2979.11 425.115 2995.32 433.391C3011.88 441.323 3024.64 452.531 3033.6 467.015C3042.91 481.499 3047.57 498.052 3047.57 516.674V706H3000.5V669.79C2990.5 682.895 2977.22 693.24 2960.67 700.827C2944.46 708.414 2926.35 712.207 2906.35 712.207ZM2863.93 631.511C2863.93 642.891 2868.42 652.375 2877.38 659.962C2886.69 667.549 2898.25 671.342 2912.04 671.342C2928.94 671.342 2943.94 667.721 2957.04 660.479C2970.49 652.892 2980.84 642.719 2988.08 629.959C2995.67 617.2 2999.46 603.06 2999.46 587.542V569.954L2915.14 583.921C2881 589.783 2863.93 605.647 2863.93 631.511ZM3188.37 566.333L3091.12 427.184H3149.06L3217.34 526.502L3285.1 427.184H3343.56L3246.31 566.333L3343.04 706H3285.1L3217.34 606.164L3149.57 706H3090.6L3188.37 566.333Z" fill="white"/>
<path d="M2062.66 705.483L1951.96 427.184H2004.21L2089.04 644.96L2173.36 427.184H2226.64L2072.49 809.457H2019.21L2062.66 705.483Z" fill="white"/>
<rect x="1.00764" y="1.00764" width="1031.82" height="987.486" rx="248.992" fill="white" stroke="url(#paint0_linear_53_44)" stroke-width="2.01528"/>
<path d="M515.911 466.497L515.911 990.388M181.375 598.537V418.075C181.375 224.27 515.911 222.515 515.911 418.075M515.911 418.075V598.537M515.911 418.075C515.911 224.27 850.447 222.516 850.447 418.075V598.538" stroke="url(#paint1_linear_53_44)" stroke-width="108.019"/>
<defs>
<linearGradient id="paint0_linear_53_44" x1="516.919" y1="0" x2="516.919" y2="989.501" gradientUnits="userSpaceOnUse">
<stop stop-color="#0B6DD0"/>
<stop offset="1" stop-color="#06386A"/>
</linearGradient>
<linearGradient id="paint1_linear_53_44" x1="683.179" y1="272.063" x2="683.179" y2="598.537" gradientUnits="userSpaceOnUse">
<stop stop-color="#1B3663"/>
<stop offset="1" stop-color="#0B6DD0"/>
</linearGradient>
</defs>
</svg>
