<svg width="1833" height="650" viewBox="0 0 1833 650" fill="none" xmlns="http://www.w3.org/2000/svg">
<line x1="1072.57" y1="243.053" x2="1072.57" y2="507.191" stroke="white" stroke-width="54.4616"/>
<path d="M903.9 309.628C903.9 309.628 903.9 254.173 903.9 218.641C903.9 120.927 1072.57 120.043 1072.57 218.641C1072.57 254.173 1072.57 309.628 1072.57 309.628" stroke="white" stroke-width="54.4616"/>
<path d="M1072.57 309.628C1072.57 309.628 1072.57 254.173 1072.57 218.641C1072.57 120.927 1241.24 120.043 1241.24 218.641C1241.24 254.173 1241.24 309.628 1241.24 309.628" stroke="white" stroke-width="54.4616"/>
<line x1="195.698" y1="242.564" x2="195.698" y2="309.625" stroke="white" stroke-width="54.4616"/>
<path d="M27.2307 507.254C27.2307 507.254 27.2307 254.173 27.2307 218.641C27.2307 120.927 195.899 120.043 195.899 218.641C195.899 254.173 195.899 309.628 195.899 309.628" stroke="white" stroke-width="54.4616"/>
<path d="M364.566 507.254C364.566 507.254 364.566 254.173 364.566 218.641C364.566 120.927 195.897 120.043 195.897 218.641C195.897 254.173 195.897 309.628 195.897 309.628" stroke="white" stroke-width="54.4616"/>
<path d="M1383.58 542.207C1355.99 542.207 1333.58 534.965 1316.33 520.481C1299.09 505.653 1290.47 486.513 1290.47 463.063C1290.47 440.302 1297.88 421.335 1312.71 406.162C1327.89 390.643 1350.82 380.297 1381.51 375.125L1476.69 359.606V346.674C1476.69 331.5 1471 319.258 1459.62 309.947C1448.24 300.291 1433.59 295.463 1415.65 295.463C1399.79 295.463 1385.65 299.601 1373.24 307.878C1361.17 315.809 1352.2 326.5 1346.34 339.949L1304.44 318.223C1312.37 298.911 1326.85 282.876 1347.89 270.116C1368.92 257.356 1391.86 250.976 1416.69 250.976C1437.72 250.976 1456.35 255.115 1472.55 263.391C1489.11 271.323 1501.87 282.531 1510.83 297.015C1520.14 311.499 1524.8 328.052 1524.8 346.674V536H1477.73V499.79C1467.73 512.895 1454.45 523.24 1437.9 530.827C1421.69 538.414 1403.58 542.207 1383.58 542.207ZM1341.16 461.511C1341.16 472.891 1345.65 482.375 1354.61 489.962C1363.92 497.549 1375.48 501.342 1389.27 501.342C1406.17 501.342 1421.17 497.721 1434.27 490.479C1447.72 482.892 1458.07 472.719 1465.31 459.959C1472.9 447.2 1476.69 433.06 1476.69 417.542V399.954L1392.37 413.921C1358.23 419.783 1341.16 435.647 1341.16 461.511ZM1665.6 396.333L1568.35 257.184H1626.29L1694.57 356.502L1762.33 257.184H1820.79L1723.54 396.333L1820.27 536H1762.33L1694.57 436.164L1626.81 536H1567.84L1665.6 396.333Z" fill="white"/>
<path d="M539.893 535.483L429.194 257.184H481.439L566.274 474.96L650.591 257.184H703.872L549.721 639.457H496.441L539.893 535.483Z" fill="white"/>
</svg>
